<svg width="21" height="12" viewBox="0 0 21 12" fill="none" xmlns="http://www.w3.org/2000/svg">
<path d="M19.7688 4.24545L16.5434 0.98676C16.466 0.908644 16.3738 0.846642 16.2722 0.80433C16.1707 0.762018 16.0617 0.740234 15.9517 0.740234C15.8417 0.740234 15.7327 0.762018 15.6312 0.80433C15.5296 0.846642 15.4374 0.908644 15.36 0.98676V0.98676C15.2047 1.14291 15.1176 1.35415 15.1176 1.57432C15.1176 1.7945 15.2047 2.00574 15.36 2.16189L18.327 5.15388H1.33342C1.11239 5.15388 0.900402 5.24169 0.744105 5.39799C0.587807 5.55429 0.5 5.76627 0.5 5.98731H0.5C0.5 6.20835 0.587807 6.42033 0.744105 6.57663C0.900402 6.73293 1.11239 6.82073 1.33342 6.82073H18.377L15.36 9.8294C15.2819 9.90688 15.2198 9.99905 15.1775 10.1006C15.1352 10.2022 15.1134 10.3111 15.1134 10.4211C15.1134 10.5312 15.1352 10.6401 15.1775 10.7416C15.2198 10.8432 15.2819 10.9354 15.36 11.0129C15.4374 11.091 15.5296 11.153 15.6312 11.1953C15.7327 11.2376 15.8417 11.2594 15.9517 11.2594C16.0617 11.2594 16.1707 11.2376 16.2722 11.1953C16.3738 11.153 16.466 11.091 16.5434 11.0129L19.7688 7.77917C20.237 7.31037 20.5 6.67489 20.5 6.01231C20.5 5.34974 20.237 4.71425 19.7688 4.24545V4.24545Z" fill="white"/>
</svg>
