<svg width="23" height="19" viewBox="0 0 23 19" fill="none" xmlns="http://www.w3.org/2000/svg">
<path d="M5.7233e-07 9.50043C-0.000552733 7.90647 0.400088 6.33802 1.165 4.93959C1.92992 3.54117 3.03451 2.35776 4.37697 1.49841C5.71944 0.639071 7.25661 0.131438 8.84682 0.0222931C10.437 -0.0868519 12.0291 0.206002 13.4764 0.873869C13.7625 1.0059 13.9844 1.24616 14.0934 1.54182C14.2023 1.83748 14.1894 2.1643 14.0573 2.45039C13.9253 2.73648 13.685 2.95841 13.3894 3.06735C13.0937 3.1763 12.7669 3.16333 12.4808 3.0313C11.3956 2.5316 10.2021 2.3129 9.01017 2.39535C7.81826 2.4778 6.66624 2.85874 5.66014 3.50311C4.65404 4.14747 3.82619 5.03457 3.25279 6.08273C2.67939 7.1309 2.37885 8.30646 2.37885 9.50122C2.37885 10.696 2.67939 11.8715 3.25279 12.9197C3.82619 13.9679 4.65404 14.855 5.66014 15.4993C6.66624 16.1437 7.81826 16.5246 9.01017 16.6071C10.2021 16.6895 11.3956 16.4708 12.4808 15.9711C12.6227 15.9022 12.7769 15.8623 12.9345 15.8536C13.092 15.845 13.2496 15.8678 13.3982 15.9208C13.5468 15.9738 13.6834 16.0559 13.7999 16.1623C13.9164 16.2686 14.0105 16.3971 14.0768 16.5403C14.143 16.6835 14.1801 16.8384 14.1858 16.9961C14.1915 17.1537 14.1657 17.3109 14.11 17.4585C14.0543 17.6061 13.9697 17.7411 13.8611 17.8556C13.7526 17.9701 13.6224 18.0618 13.478 18.1254C12.0308 18.7936 10.4386 19.0867 8.84834 18.9778C7.25803 18.8689 5.72071 18.3615 4.37807 17.5023C3.03542 16.6431 1.93063 15.4598 1.16552 14.0613C0.40041 12.6629 -0.000409695 11.0945 5.7233e-07 9.50043Z" fill="#3F8CFF"/>
<path d="M16.2161 4.2691C16.1007 4.37403 16.0071 4.50068 15.9406 4.64181C15.8742 4.78294 15.8362 4.93579 15.8288 5.09161C15.8215 5.24743 15.8449 5.40318 15.8978 5.54994C15.9507 5.6967 16.0319 5.8316 16.137 5.94693L18.2897 8.3133H9.1012C8.78635 8.3133 8.4844 8.43837 8.26177 8.661C8.03914 8.88363 7.91406 9.18559 7.91406 9.50044C7.91406 9.81529 8.03914 10.1172 8.26177 10.3399C8.4844 10.5625 8.78635 10.6876 9.1012 10.6876H18.2897L16.137 13.0539C15.925 13.2869 15.8142 13.5946 15.8291 13.9092C15.8439 14.2239 15.9831 14.5198 16.2161 14.7318C16.4491 14.9438 16.7568 15.0545 17.0714 15.0397C17.3861 15.0248 17.682 14.8856 17.894 14.6526L21.8511 10.2998C22.0513 10.0809 22.1621 9.79487 22.1615 9.49824C22.1609 9.2016 22.049 8.91599 21.8479 8.69793L17.894 4.34824C17.789 4.23281 17.6624 4.13919 17.5212 4.07274C17.3801 4.00628 17.2273 3.96829 17.0715 3.96094C16.9156 3.95359 16.7599 3.97703 16.6131 4.0299C16.4664 4.08278 16.3315 4.16406 16.2161 4.2691Z" fill="#3F8CFF"/>
</svg>
